<svg width="23" height="32" viewBox="0 0 23 32" fill="none" xmlns="http://www.w3.org/2000/svg">
<mask id="mask0_5_184" style="mask-type:luminance" maskUnits="userSpaceOnUse" x="0" y="0" width="23" height="32">
<path d="M14.2802 0.458313H2.47707C1.33147 0.458313 0.394165 1.41204 0.394165 2.57772V29.4235C0.394165 30.5892 1.33147 31.5429 2.47707 31.5429H20.5289C21.6745 31.5429 22.6119 30.5892 22.6119 29.4235V8.93592L14.2802 0.458313Z" fill="white"/>
</mask>
<g mask="url(#mask0_5_184)">
<path d="M14.2802 0.458313H2.47707C1.33147 0.458313 0.394165 1.41204 0.394165 2.57772V29.4235C0.394165 30.5892 1.33147 31.5429 2.47707 31.5429H20.5289C21.6745 31.5429 22.6119 30.5892 22.6119 29.4235V8.93592L17.7517 5.40359L14.2802 0.458313Z" fill="#0F9D58"/>
</g>
<mask id="mask1_5_184" style="mask-type:luminance" maskUnits="userSpaceOnUse" x="0" y="0" width="23" height="32">
<path d="M14.2802 0.458313H2.47707C1.33147 0.458313 0.394165 1.41204 0.394165 2.57772V29.4235C0.394165 30.5892 1.33147 31.5429 2.47707 31.5429H20.5289C21.6745 31.5429 22.6119 30.5892 22.6119 29.4235V8.93592L14.2802 0.458313Z" fill="white"/>
</mask>
<g mask="url(#mask1_5_184)">
<path d="M5.94788 15.6458V25.8896H17.0567V15.6458H5.94788ZM10.808 24.4767H7.33648V22.7105H10.808V24.4767ZM10.808 21.6508H7.33648V19.8846H10.808V21.6508ZM10.808 18.8249H7.33648V17.0587H10.808V18.8249ZM15.6681 24.4767H12.1966V22.7105H15.6681V24.4767ZM15.6681 21.6508H12.1966V19.8846H15.6681V21.6508ZM15.6681 18.8249H12.1966V17.0587H15.6681V18.8249Z" fill="#F1F1F1"/>
</g>
<mask id="mask2_5_184" style="mask-type:luminance" maskUnits="userSpaceOnUse" x="0" y="0" width="23" height="32">
<path d="M14.2802 0.458313H2.47707C1.33147 0.458313 0.394165 1.41204 0.394165 2.57772V29.4235C0.394165 30.5892 1.33147 31.5429 2.47707 31.5429H20.5289C21.6745 31.5429 22.6119 30.5892 22.6119 29.4235V8.93592L14.2802 0.458313Z" fill="white"/>
</mask>
<g mask="url(#mask2_5_184)">
<path d="M14.8902 8.3125L22.6126 16.1684V8.93242L14.8902 8.3125Z" fill="url(#paint0_linear_5_184)"/>
</g>
<mask id="mask3_5_184" style="mask-type:luminance" maskUnits="userSpaceOnUse" x="0" y="0" width="23" height="32">
<path d="M14.2802 0.458313H2.47707C1.33147 0.458313 0.394165 1.41204 0.394165 2.57772V29.4235C0.394165 30.5892 1.33147 31.5429 2.47707 31.5429H20.5289C21.6745 31.5429 22.6119 30.5892 22.6119 29.4235V8.93592L14.2802 0.458313Z" fill="white"/>
</mask>
<g mask="url(#mask3_5_184)">
<path d="M14.2811 0.458313V6.81652C14.2811 7.98749 15.2132 8.93593 16.364 8.93593H22.6127L14.2811 0.458313Z" fill="#87CEAC"/>
</g>
<mask id="mask4_5_184" style="mask-type:luminance" maskUnits="userSpaceOnUse" x="0" y="0" width="23" height="32">
<path d="M14.2802 0.458313H2.47707C1.33147 0.458313 0.394165 1.41204 0.394165 2.57772V29.4235C0.394165 30.5892 1.33147 31.5429 2.47707 31.5429H20.5289C21.6745 31.5429 22.6119 30.5892 22.6119 29.4235V8.93592L14.2802 0.458313Z" fill="white"/>
</mask>
<g mask="url(#mask4_5_184)">
<path d="M2.47707 0.458313C1.33147 0.458313 0.394165 1.41204 0.394165 2.57772V2.75433C0.394165 1.58866 1.33147 0.63493 2.47707 0.63493H14.2802V0.458313H2.47707Z" fill="white" fill-opacity="0.2"/>
</g>
<mask id="mask5_5_184" style="mask-type:luminance" maskUnits="userSpaceOnUse" x="0" y="0" width="23" height="32">
<path d="M14.2802 0.458313H2.47707C1.33147 0.458313 0.394165 1.41204 0.394165 2.57772V29.4235C0.394165 30.5892 1.33147 31.5429 2.47707 31.5429H20.5289C21.6745 31.5429 22.6119 30.5892 22.6119 29.4235V8.93592L14.2802 0.458313Z" fill="white"/>
</mask>
<g mask="url(#mask5_5_184)">
<path d="M20.5289 31.3642H2.47707C1.33147 31.3642 0.394165 30.4104 0.394165 29.2448V29.4214C0.394165 30.587 1.33147 31.5408 2.47707 31.5408H20.5289C21.6745 31.5408 22.6119 30.587 22.6119 29.4214V29.2448C22.6119 30.4104 21.6745 31.3642 20.5289 31.3642Z" fill="#263238" fill-opacity="0.2"/>
</g>
<mask id="mask6_5_184" style="mask-type:luminance" maskUnits="userSpaceOnUse" x="0" y="0" width="23" height="32">
<path d="M14.2802 0.458313H2.47707C1.33147 0.458313 0.394165 1.41204 0.394165 2.57772V29.4235C0.394165 30.5892 1.33147 31.5429 2.47707 31.5429H20.5289C21.6745 31.5429 22.6119 30.5892 22.6119 29.4235V8.93592L14.2802 0.458313Z" fill="white"/>
</mask>
<g mask="url(#mask6_5_184)">
<path d="M16.364 8.93709C15.2132 8.93709 14.2811 7.98866 14.2811 6.81769V6.99431C14.2811 8.16528 15.2132 9.11371 16.364 9.11371H22.6127V8.93709H16.364Z" fill="#263238" fill-opacity="0.1"/>
</g>
<path d="M14.2802 0.458313H2.47707C1.33147 0.458313 0.394165 1.41204 0.394165 2.57772V29.4235C0.394165 30.5892 1.33147 31.5429 2.47707 31.5429H20.5289C21.6745 31.5429 22.6119 30.5892 22.6119 29.4235V8.93592L14.2802 0.458313Z" fill="url(#paint1_radial_5_184)"/>
<defs>
<linearGradient id="paint0_linear_5_184" x1="401.051" y1="75.7643" x2="401.051" y2="794.014" gradientUnits="userSpaceOnUse">
<stop stop-color="#263238" stop-opacity="0.2"/>
<stop offset="1" stop-color="#263238" stop-opacity="0.02"/>
</linearGradient>
<radialGradient id="paint1_radial_5_184" cx="0" cy="0" r="1" gradientUnits="userSpaceOnUse" gradientTransform="translate(70.7809 61.8951) scale(3582.57 3645.34)">
<stop stop-color="white" stop-opacity="0.1"/>
<stop offset="1" stop-color="white" stop-opacity="0"/>
</radialGradient>
</defs>
</svg>
